# xmcd CD database file
#
# Track frame offsets:
#	150
#	16112
#	32990
#	46646
#	58515
#	72291
#	84940
#	98569
#	112205
#	126703
#	141092
#	155735
#	169975
#	184767
#	198243
#	211877
#
# Disc length: 2980 seconds
#
# Revision: 7
# Processed by: cddbd v1.5.2PL0 Copyright (c) Steve Scherf et al.
# Submitted via: CDex 1.51
#
DISCID=df0ba210
DTITLE=John Lee Hooker - Blues Is The Healer  [CD 02-10]
DYEAR=2005
DGENRE=Blues
TTITLE0=Good Business
TTITLE1=Goin' Mad Blues
TTITLE2=Morning Blues
TTITLE3=Boogie Awhile
TTITLE4=Tuesday Evening Blues
TTITLE5=Weeping Willow Boogie
TTITLE6=Hobo Blues
TTITLE7=Miss Lorraine
TTITLE8=Do The Boogie
TTITLE9=Do The Boogie  (Alt)
TTITLE10=609 Boogie
TTITLE11=Road Trouble
TTITLE12=Christmas Time Blues
TTITLE13=Drifting From Door To Door
TTITLE14=Hobo Blues
TTITLE15=Howlin' Wolf
EXTD=YEAR: 2005
EXTT0=
EXTT1=
EXTT2=
EXTT3=
EXTT4=
EXTT5=
EXTT6=
EXTT7=
EXTT8=
EXTT9=
EXTT10=
EXTT11=
EXTT12=
EXTT13=
EXTT14=
EXTT15=
PLAYORDER=
